HIERARCHY
ROOT hip
{
	OFFSET 0.000000 0.000000 0.000000 
	CHANNELS 6 Xposition Yposition Zposition Xrotation Zrotation Yrotation
	JOINT abdomen
	{
		OFFSET 0.000000 3.402643 0.000000 
		CHANNELS 3 Xrotation Zrotation Yrotation
		JOINT chest
		{
			OFFSET 0.000000 8.438565 -0.680529 
			CHANNELS 3 Xrotation Zrotation Yrotation
			JOINT neck
			{
				OFFSET 0.000000 10.207942 -0.272212 
				CHANNELS 3 Xrotation Zrotation Yrotation
				JOINT head
				{
					OFFSET 0.000000 3.130431 0.000000 
					CHANNELS 3 Xrotation Zrotation Yrotation
					End Site
					{
						OFFSET 0.000000 3.130435 0.000000 
					}
				}
			}
			JOINT lCollar
			{
				OFFSET 3.470700 6.669187 -0.816635 
				CHANNELS 3 Yrotation Zrotation Xrotation
				JOINT lShldr
				{
					OFFSET 3.198488 0.000000 0.000000 
					CHANNELS 3 Zrotation Yrotation Xrotation
					JOINT lForeArm
					{
						OFFSET 10.139888 0.000000 0.000000 
						CHANNELS 3 Yrotation Zrotation Xrotation
						JOINT lHand
						{
							OFFSET 8.370511 0.000000 0.000000 
							CHANNELS 3 Zrotation Yrotation Xrotation
							End Site
							{
								OFFSET 4.083176 0.000000 0.000000 
							}
						}
					}
				}
			}
			JOINT rCollar
			{
				OFFSET -3.470700 6.669187 -0.816635 
				CHANNELS 3 Yrotation Zrotation Xrotation
				JOINT rShldr
				{
					OFFSET -3.198488 0.000000 0.000000 
					CHANNELS 3 Zrotation Yrotation Xrotation
					JOINT rForeArm
					{
						OFFSET -10.139888 0.000000 0.000000 
						CHANNELS 3 Yrotation Zrotation Xrotation
						JOINT rHand
						{
							OFFSET -8.370511 0.000000 0.000000 
							CHANNELS 3 Zrotation Yrotation Xrotation
							End Site
							{
								OFFSET -4.083176 0.000000 0.000000 
							}
						}
					}
				}
			}
		}
	}
	JOINT lThigh
	{
		OFFSET 5.308129 -1.633274 1.361059 
		CHANNELS 3 Xrotation Zrotation Yrotation
		JOINT lShin
		{
			OFFSET -2.041588 -20.007561 0.000000 
			CHANNELS 3 Xrotation Zrotation Yrotation
			JOINT lFoot
			{
				OFFSET 0.000000 -19.190928 -1.224953 
				CHANNELS 3 Xrotation Yrotation Zrotation
				End Site
				{
					OFFSET 0.000000 -2.449906 4.627600 
				}
			}
		}
	}
	JOINT rThigh
	{
		OFFSET -5.308129 -1.633274 1.361059 
		CHANNELS 3 Xrotation Zrotation Yrotation
		JOINT rShin
		{
			OFFSET 2.041588 -20.007561 0.000000 
			CHANNELS 3 Xrotation Zrotation Yrotation
			JOINT rFoot
			{
				OFFSET 0.000000 -19.190928 -1.224953 
				CHANNELS 3 Xrotation Yrotation Zrotation
				End Site
				{
					OFFSET 0.000000 -2.449906 4.627600 
				}
			}
		}
	}
}
MOTION
Frames: 20
Frame Time: 0.016667
4.210318 49.168564 -0.979505 -0.057339 -9.406630 -66.605438 40.493179 3.711910 2.355281 3.086911 2.449188 3.439984 0.689435 1.815198 0.051491 10.488273 -12.614660 41.556545 -13.264771 -3.133120 -0.159536 -38.824032 4.818069 -9.166049 -123.870613 5.000000 23.477894 -18.786322 -25.947142 -7.992020 6.826177 -1.752937 0.093228 89.125099 71.779274 45.000000 112.571892 -5.000000 5.794002 35.141319 -0.353192 -1.466531 -20.279020 28.286304 -2.069345 43.358372 -6.626657 -6.822938 -11.255681 9.153522 -11.811382 -7.409465 -11.676474 4.533134 48.476555 6.418248 7.956795 -30.298138 -12.017925 6.916369 
4.279325 49.486790 -0.964881 0.126351 -8.969111 -67.019608 40.285549 3.363965 2.356865 3.139482 2.380613 3.654680 0.473595 1.675638 0.042978 10.362432 -12.689722 41.875595 -13.048380 -2.528459 -0.128319 -38.600300 4.840402 -9.037800 -123.135208 5.000000 23.299608 -18.653889 -25.604683 -7.503859 6.631763 -2.250319 0.119007 89.686737 72.243416 45.000000 112.630600 -5.000000 5.596927 34.798069 -0.383148 -1.348336 -19.452177 28.104046 -1.299551 41.365765 -6.571221 -6.288255 -10.350691 9.025910 -11.956289 -7.186071 -11.785238 4.605762 46.477386 6.613488 7.663083 -29.058146 -11.615909 7.277276 
4.349714 49.808311 -0.951085 0.341851 -8.507578 -67.450867 40.059227 3.024719 2.384828 3.200160 2.292545 3.849865 0.208763 1.534617 0.024809 10.211816 -12.746375 42.245613 -12.802972 -1.894540 -0.095576 -38.372814 4.845071 -8.883832 -122.474922 5.000000 23.187862 -18.496567 -25.266125 -7.103420 6.418090 -2.767207 0.145787 90.000000 72.788918 45.000000 112.690155 -5.000000 5.390451 34.405109 -0.402596 -1.175192 -18.636780 27.882753 -0.554176 39.300541 -6.456689 -5.731021 -9.354485 8.987208 -12.048499 -6.968072 -11.859129 4.639511 44.435154 6.798976 7.336101 -27.764189 -11.291327 7.643358 
4.423968 50.106075 -0.939497 0.557159 -8.031007 -67.888535 39.793243 2.733952 2.403714 3.209503 2.185026 4.025550 0.168897 1.356433 0.022127 10.026184 -12.801032 42.502056 -12.587249 -1.280126 -0.063612 -38.149094 4.971864 -8.763312 -121.885010 5.000000 23.121567 -18.471624 -24.915230 -6.648994 6.467721 -3.265688 0.161858 90.000000 73.269089 45.000000 112.795677 -5.000000 5.243915 34.012947 -0.465626 -1.020993 -17.898451 27.672804 0.097685 37.297890 -6.368456 -5.262768 -8.482372 9.047635 -12.184897 -6.823494 -11.959067 4.713689 42.510330 7.014826 7.077268 -26.625341 -10.960072 7.990276 
4.504020 50.368202 -0.931223 0.801051 -7.541125 -68.335487 39.478439 2.514807 2.428752 3.146497 2.048361 4.142684 0.451172 1.080230 0.024382 9.819237 -12.839713 42.571037 -12.440255 -0.714475 -0.034474 -37.923542 5.290989 -8.666038 -121.401245 5.000000 23.104490 -18.636236 -24.534660 -6.141964 6.908608 -3.743639 0.186608 89.823395 73.650108 45.000000 112.967064 -5.000000 5.179912 33.631435 -0.610412 -0.898564 -17.271839 27.514278 0.640048 35.442184 -6.338833 -4.880604 -7.649843 9.226446 -12.330561 -6.753897 -12.074430 4.820168 40.720093 7.278243 6.862673 -25.623611 -10.663897 8.360559 
4.584072 50.630322 -0.922950 1.041954 -7.046227 -68.783806 39.143394 2.278220 2.445559 3.082728 1.901954 4.269253 0.733486 0.812222 0.015516 9.600228 -12.876313 42.649364 -12.293550 -0.148823 -0.005333 -37.696556 5.609457 -8.566395 -120.911682 5.000000 23.071510 -18.805178 -24.154091 -5.634560 7.359469 -4.221591 0.211347 89.102654 74.026047 45.000000 113.127388 -5.000000 5.110864 33.249329 -0.745418 -0.768912 -16.657412 27.358536 1.139690 33.584431 -6.304939 -4.509647 -6.814936 9.385512 -12.530892 -6.716278 -12.193740 4.927064 38.931763 7.532207 6.668164 -24.619137 -10.329722 8.712481 
4.676534 50.784801 -0.921576 1.239198 -6.545145 -69.040230 38.904652 2.074630 2.435793 3.073749 1.823688 4.444952 0.616014 0.683776 0.015178 9.405072 -12.953023 42.972633 -12.098260 0.260787 0.015770 -37.619526 5.709793 -8.491447 -120.999207 5.000000 23.326702 -19.365030 -23.666943 -4.540890 7.390143 -4.582439 0.230010 88.972786 74.488869 45.000000 113.271332 -5.000000 5.034354 32.973061 -0.538513 -0.605461 -16.440683 27.257908 1.670230 32.284363 -6.241575 -4.265156 -6.226400 9.248570 -12.647859 -6.854788 -12.342756 4.714444 37.739155 7.639509 6.489131 -24.035915 -9.961097 9.046993 
4.768998 50.939255 -0.920202 1.452881 -6.047232 -69.294746 38.655773 1.861635 2.423023 3.073602 1.735680 4.620659 0.498587 0.564986 0.013379 9.192101 -13.035147 43.298069 -11.893353 0.670397 0.036872 -37.551998 5.808512 -8.417235 -121.093407 5.000000 23.578516 -19.913658 -23.164900 -3.443068 7.411214 -4.953039 0.249169 88.827209 74.941193 45.000000 113.424606 -5.000000 4.956359 32.697487 -0.343555 -0.441056 -16.228964 27.165434 2.201140 30.982595 -6.182549 -4.025052 -5.683476 9.093041 -12.791626 -6.986956 -12.482862 4.493342 36.534748 7.736872 6.314031 -23.475529 -9.561026 9.374331 
4.858143 51.029140 -0.922968 1.636811 -5.708289 -69.385483 38.585373 1.760958 2.418552 3.062890 1.686829 4.708521 0.312770 0.444734 0.001924 9.029428 -13.122212 43.697414 -11.727489 0.884955 0.047925 -37.639381 5.941400 -8.413806 -121.636253 5.000000 24.113874 -20.613966 -22.546207 -2.334401 7.509862 -5.177364 0.261643 88.443672 75.268578 45.000000 113.615005 -5.000000 4.943800 32.734325 -0.443592 -0.122627 -16.260099 27.099728 2.424880 30.220121 -6.115049 -3.836889 -5.300283 8.951308 -12.888492 -7.114238 -12.551610 4.202242 35.772255 7.757765 6.165315 -23.051134 -9.286537 9.663601 
4.945073 51.075962 -0.928493 1.805051 -5.479382 -69.376350 38.594303 1.722304 2.421444 3.061539 1.657562 4.737811 0.078263 0.325944 0.000124 8.881742 -13.217175 44.149796 -11.581069 0.962975 0.051944 -37.830116 6.086432 -8.466153 -122.476479 5.000000 24.825764 -21.424500 -21.838100 -1.212547 7.647209 -5.313922 0.268723 87.898689 75.505753 45.000000 113.849968 -5.000000 4.973588 32.983833 -0.735898 0.290695 -16.423567 27.085857 2.509274 29.777149 -6.040376 -3.708159 -5.034989 8.811930 -13.000367 -7.254720 -12.596163 3.861751 35.314095 7.746722 6.089951 -22.733402 -9.020264 9.951362 
5.028412 51.104584 -0.934567 1.963110 -5.291173 -69.309799 38.643005 1.715683 2.417588 3.060447 1.638061 4.747574 -0.107372 0.216809 -0.003136 8.754069 -13.293935 44.537445 -11.483438 0.992233 0.053451 -38.059994 6.219388 -8.532480 -123.346893 5.000000 25.539322 -22.223171 -21.154951 -0.136585 7.775537 -5.410148 0.283412 87.283455 75.697983 45.000000 114.066299 -5.000000 5.011569 33.277668 -1.132183 0.763666 -16.688337 27.078199 2.493706 29.492365 -5.966637 -3.633986 -4.802214 8.609688 -13.073520 -7.387456 -12.599971 3.532365 34.994438 7.698217 5.980758 -22.483341 -8.818857 10.191171 
5.097391 51.060364 -0.942844 2.095833 -5.287150 -69.005562 38.790829 1.836724 2.412052 3.052319 1.667312 4.747577 -0.117165 0.138102 -0.001118 8.703270 -13.331834 44.597271 -11.541867 0.787428 0.042901 -38.432156 6.249420 -8.638556 -124.331001 5.000000 26.248966 -23.103689 -20.660929 0.796469 7.873098 -5.390642 0.282401 86.475105 75.716110 45.000000 114.227768 -5.000000 5.074745 33.789425 -1.880011 1.455838 -17.215805 27.098015 2.103187 29.835629 -5.937763 -3.688524 -4.915529 8.580675 -13.006886 -7.485329 -12.512440 3.230006 35.174816 7.601475 5.914019 -22.586540 -8.788296 10.285715 
5.166368 51.016132 -0.951122 2.219186 -5.281026 -68.701988 38.939030 1.957512 2.429010 3.053668 1.696579 4.728053 -0.126956 0.048279 -0.007304 8.652380 -13.369630 44.657112 -11.610101 0.582623 0.032350 -38.804653 6.272228 -8.752956 -125.297417 5.000000 26.936476 -23.980131 -20.147079 1.718293 7.960941 -5.380890 0.281896 85.685898 75.712990 45.000000 114.388580 -5.000000 5.135931 34.279202 -2.626419 2.132850 -17.733824 27.128084 1.723199 30.165615 -5.927736 -3.735993 -5.011721 8.580036 -12.939787 -7.587771 -12.441278 2.907208 35.346462 7.493447 5.853363 -22.722950 -8.805429 10.347330 
5.211054 50.934410 -0.952781 2.264143 -5.368914 -68.359497 39.087242 2.061620 2.436179 3.062566 1.696628 4.698769 -0.009760 0.078707 -0.002018 8.679289 -13.355627 44.490833 -11.756465 0.270540 0.016272 -39.271976 6.231453 -8.890549 -125.862244 5.000000 27.172325 -24.192408 -20.522196 2.548237 8.038547 -5.273613 0.276338 84.902771 75.547005 45.000000 114.514557 -5.000000 5.204542 34.542110 -3.111655 2.516390 -18.308428 27.145384 1.175392 30.777365 -6.006808 -3.872951 -5.204313 8.607087 -12.848072 -7.719192 -12.346193 2.872940 35.852318 7.453997 5.937129 -22.963846 -9.125788 10.280860 
5.249664 50.843307 -0.952785 2.283830 -5.479595 -68.002716 39.225300 2.156496 2.439802 3.070885 1.696707 4.649961 0.146507 0.138102 -0.001118 8.716049 -13.324019 44.266899 -11.932215 -0.061049 -0.000811 -39.748238 6.167375 -9.037918 -126.307327 5.000000 27.269520 -24.263126 -21.121950 3.365076 8.116072 -5.146830 0.269769 84.163918 75.320358 45.000000 114.640656 -5.000000 5.273546 34.746849 -3.533929 2.824395 -18.844112 27.182388 0.622357 31.434027 -6.108723 -4.049677 -5.455241 8.531583 -12.786379 -7.868883 -12.291960 2.916496 36.449947 7.454134 6.062017 -23.203953 -9.502527 10.153230 
5.274475 50.750004 -0.958864 2.260396 -5.610877 -67.661285 39.314373 2.260521 2.423669 3.003397 1.745559 4.562102 0.517576 0.008195 -0.011117 8.872355 -13.347832 44.056408 -12.215520 -0.480412 -0.022416 -40.118656 6.345713 -9.208321 -126.607887 5.000000 27.263458 -24.305534 -21.473955 3.872763 8.554656 -5.148283 0.259275 82.969078 74.851128 45.000000 114.735840 -5.000000 5.327313 34.902668 -3.997907 3.294024 -19.310568 27.238358 0.167489 32.090073 -6.211112 -4.248424 -5.745005 8.518384 -12.685618 -8.002889 -12.181207 3.009263 37.074158 7.414910 6.168389 -23.552206 -9.928467 9.999217 
5.278586 50.653404 -0.974062 2.212410 -5.775620 -67.367867 39.325859 2.406001 2.388696 2.811668 1.872499 4.396140 1.230868 -0.399377 -0.028532 9.220521 -13.439622 43.870972 -12.655334 -1.016806 -0.050048 -40.343529 6.885830 -9.404507 -126.706863 5.000000 27.096567 -24.278339 -21.458014 3.927660 9.541836 -5.333746 0.269781 81.226875 74.000359 45.000000 114.788757 -5.000000 5.358969 35.004330 -4.527318 3.993824 -19.705307 27.341251 -0.179001 32.785843 -6.373241 -4.467775 -6.104983 8.423329 -12.586506 -8.120673 -12.064794 3.189111 37.782368 7.347264 6.264500 -23.978743 -10.399751 9.794354 
5.282695 50.556808 -0.989259 2.153101 -5.941000 -67.064857 39.336884 2.532410 2.345041 2.619507 1.999456 4.240285 1.935063 -0.806948 -0.045940 9.576630 -13.529444 43.697147 -13.105190 -1.562952 -0.078178 -40.558971 7.420119 -9.610830 -126.800697 5.000000 26.935415 -24.244177 -21.438822 3.983722 10.529096 -5.528963 0.279917 79.671570 73.135132 45.000000 114.851570 -5.000000 5.390986 35.097775 -5.073370 4.693595 -20.072487 27.434427 -0.504212 33.473106 -6.524501 -4.704742 -6.473152 8.274443 -12.523316 -8.256204 -11.936348 3.389122 38.480022 7.284382 6.322854 -24.392038 -10.866347 9.589422 
5.257839 50.475403 -1.025139 2.149863 -6.084323 -66.827644 39.438259 2.428675 2.262561 2.734584 1.911560 4.328123 1.562909 -0.418689 -0.025614 9.517899 -13.444627 43.574848 -12.919616 -1.543446 -0.077174 -40.628750 6.989224 -9.550235 -127.280045 5.000000 27.087011 -24.629442 -21.011311 4.272544 9.766628 -5.372794 0.271809 81.464386 73.361900 45.000000 114.824677 -5.000000 5.450513 34.739960 -4.962240 4.949502 -20.377474 27.632509 -0.720637 33.979977 -6.690466 -4.891040 -6.652014 8.195396 -12.444640 -8.335683 -11.733460 3.447827 39.095699 7.161045 6.370061 -24.720201 -11.091674 9.417092 
5.232977 50.394012 -1.061023 2.136689 -6.225270 -66.588974 39.530628 2.330672 2.192437 2.849451 1.823672 4.425416 1.191410 -0.030428 -0.005278 9.459356 -13.364386 43.464191 -12.734056 -1.533694 -0.076671 -40.696693 6.544889 -9.489621 -127.758934 5.000000 27.241383 -25.009554 -20.581196 4.550352 9.004186 -5.216626 0.263701 83.331268 73.553154 45.000000 114.808578 -5.000000 5.514229 34.372860 -4.852793 5.213045 -20.683931 27.841961 -0.943875 34.515659 -6.857958 -5.111649 -6.812397 8.056480 -12.405589 -8.426832 -11.522614 3.535611 39.720303 7.043549 6.380394 -25.021530 -11.297568 9.257889 
